<svg width="500" height="500" viewBox="0 0 500 500" fill="none" xmlns="http://www.w3.org/2000/svg">
<g clip-path="url(#clip0_78_3)">
<path d="M375 0H125C55.9644 0 0 55.9644 0 125V375C0 444.036 55.9644 500 125 500H375C444.036 500 500 444.036 500 375V125C500 55.9644 444.036 0 375 0Z" fill="#9747FF"/>
<path d="M313.4 145.382L363.66 135L374 185.463L332.446 194.047L256.07 310.502V407H243.061V310.502L166.971 194.268L125 185.463L135.34 135L185.6 145.382L177.744 187.056L248.843 296.894H250.288L321.95 187.105L313.4 145.382Z" fill="white"/>
</g>
<defs>
<clipPath id="clip0_78_3">
<rect width="500" height="500" rx="120" fill="white"/>
</clipPath>
</defs>
</svg>
